# xmcd
#
# Track frame offsets: 
#        150
#        18750
#        47925
#        64710
#        81173
#        103635
#        119700
#        142168
#        168495
#
# Disc length: 2465 seconds
#
# Revision: 0
# Processed by: cddbd v1.5.2PL0 Copyright (c) Steve Scherf et al.
# Submitted via: ExactAudioCopyFreeDBPlugin 1.0
#
DISCID=7d099f09
DTITLE=Andreas Maron - Beginnings
DYEAR=1992
DGENRE=Instrumental
TTITLE0=NO LOOK INSIDE
TTITLE1=SHEELA
TTITLE2=WATER COLOURS
TTITLE3=LA CIUDAD
TTITLE4=USA
TTITLE5=SEPTEMBER
TTITLE6=NATURAL
TTITLE7=HOT STREETS
TTITLE8=LEONA
EXTD=
EXTT0=
EXTT1=
EXTT2=
EXTT3=
EXTT4=
EXTT5=
EXTT6=
EXTT7=
EXTT8=
PLAYORDER=
